<svg width="186" height="109" viewBox="0 0 186 109" fill="none" xmlns="http://www.w3.org/2000/svg">
<path d="M48.2617 0.125C35.2539 0.125 23.836 8.07422 17.4766 14.8672L4.90236 5.32812C3.16798 4.02734 0.566419 5.47266 1.00001 7.49609L4.46876 23.25L1.00001 39.1484C0.566419 41.1719 3.16798 42.6172 4.90236 41.3164L17.4766 31.7773C23.836 38.5703 35.2539 46.375 48.2617 46.375C68.0625 46.375 84.25 27.875 84.25 23.25C84.25 18.625 68.0625 0.125 48.2617 0.125ZM60.8359 26.7188C58.957 26.7188 57.3672 25.2734 57.3672 23.25C57.3672 21.3711 58.957 19.7812 60.8359 19.7812C62.7149 19.7812 64.3047 21.3711 64.3047 23.25C64.3047 25.2734 62.7149 26.7188 60.8359 26.7188Z" fill="#0EA3F7"/>
<path d="M149.262 62.125C136.254 62.125 124.836 70.0742 118.477 76.8672L105.902 67.3281C104.168 66.0273 101.566 67.4727 102 69.4961L105.469 85.25L102 101.148C101.566 103.172 104.168 104.617 105.902 103.316L118.477 93.7773C124.836 100.57 136.254 108.375 149.262 108.375C169.063 108.375 185.25 89.875 185.25 85.25C185.25 80.625 169.063 62.125 149.262 62.125ZM161.836 88.7188C159.957 88.7188 158.367 87.2734 158.367 85.25C158.367 83.3711 159.957 81.7812 161.836 81.7812C163.715 81.7812 165.305 83.3711 165.305 85.25C165.305 87.2734 163.715 88.7188 161.836 88.7188Z" fill="#0EA3F7"/>
</svg>
